<svg width="24" height="20" viewBox="0 0 24 20" fill="none" xmlns="http://www.w3.org/2000/svg">
<g filter="url(#filter0_d)">
<path d="M18.5 0.125183H5.50001C4.67285 0.125183 4 0.75329 4 1.52544V9.92691C4 10.6991 4.67285 11.3272 5.50001 11.3272H18.5C19.3271 11.3272 20 10.6991 20 9.92691V1.52544C20 0.75329 19.3271 0.125183 18.5 0.125183ZM18.5 1.05868C18.5679 1.05868 18.6325 1.07183 18.6916 1.09481L12 6.5088L5.30833 1.09481C5.36742 1.07186 5.43204 1.05868 5.49998 1.05868H18.5ZM18.5 10.3936H5.50001C5.22414 10.3936 5 10.1844 5 9.92688V2.08106L11.6724 7.47921C11.7666 7.55531 11.8833 7.59316 12 7.59316C12.1167 7.59316 12.2334 7.55534 12.3276 7.47921L19 2.08106V9.92691C19 10.1844 18.7759 10.3936 18.5 10.3936Z" fill="#2196F3"/>
</g>
<defs>
<filter id="filter0_d" x="0" y="0.125183" width="24" height="19.202" filterUnits="userSpaceOnUse" color-interpolation-filters="sRGB">
<feFlood flood-opacity="0" result="BackgroundImageFix"/>
<feColorMatrix in="SourceAlpha" type="matrix" values="0 0 0 0 0 0 0 0 0 0 0 0 0 0 0 0 0 0 127 0"/>
<feOffset dy="4"/>
<feGaussianBlur stdDeviation="2"/>
<feColorMatrix type="matrix" values="0 0 0 0 0 0 0 0 0 0 0 0 0 0 0 0 0 0 0.25 0"/>
<feBlend mode="normal" in2="BackgroundImageFix" result="effect1_dropShadow"/>
<feBlend mode="normal" in="SourceGraphic" in2="effect1_dropShadow" result="shape"/>
</filter>
</defs>
</svg>
